<svg xmlns="http://www.w3.org/2000/svg" xml:space="preserve" width="450px" height="450px" x="0px" y="0px" viewBox="0 0 450 450"><path fill="#00AA80" d="M450 407.567C450 430.998 431.006 450 407.57 450H42.431C18.997 450 0 430.998 0 407.567V42.425C0 18.994 18.997 0 42.431 0H407.57C431.006 0 450 18.994 450 42.425v365.142z"/><path fill="#FFF" d="M320.252 381.231H116.379v-36.856l34.99-33.592c70.287-65.932 105.437-113.051 105.437-141.358 0-33.275-18.042-49.915-54.118-49.915-20.527 0-41.835 8.708-63.915 26.125l-18.194-42.456c27.365-21.767 58.47-32.655 93.305-32.655 29.232 0 53.188 8.244 71.847 24.723 18.659 16.491 27.992 39.352 27.992 68.582 0 27.992-10.731 56.448-32.19 85.374-13.063 18.039-33.904 39.658-62.515 64.846l-19.129 16.8h120.364v50.382z"/></svg>