<svg xmlns="http://www.w3.org/2000/svg" xml:space="preserve" width="450px" height="450px" x="0px" y="0px" viewBox="0 0 450 450"><path fill="#FFB100" d="M450 407.567C450 430.998 431.006 450 407.568 450H42.431C18.999 450 0 430.998 0 407.567V42.425C0 18.994 18.999 0 42.431 0h365.136C431.006 0 450 18.994 450 42.425v365.142z"/><path fill="#FFF" d="m114.049 364.439 13.529-45.721c21.146 13.059 44.159 19.588 69.046 19.588 17.101 0 30.944-3.882 41.521-11.661 12.748-8.7 19.127-20.681 19.127-35.919 0-16.487-7.157-29.233-21.46-38.256-13.063-8.088-29.085-12.134-48.053-12.134H162.1v-44.318h25.192c15.863 0 29.544-3.417 41.055-10.263 12.75-7.15 19.129-17.417 19.129-30.792 0-11.504-4.826-20.681-14.462-27.527-8.398-5.904-19.29-8.861-32.659-8.861-21.154 0-41.988 6.689-62.515 20.061l-13.529-43.854c22.7-16.167 51.625-24.259 86.775-24.259 25.192 0 46.492 5.596 63.917 16.792 20.213 14.313 30.319 33.904 30.319 58.784 0 35.458-15.554 58.631-46.65 69.515 12.434 2.796 25.11 11.273 38.021 25.426 12.902 14.158 19.361 31.489 19.361 52.014 0 30.796-12.594 54.75-37.786 71.847-21.462 14.308-47.902 21.462-79.313 21.462-35.149-.001-63.445-7.304-84.906-21.924z"/></svg>