<svg xmlns="http://www.w3.org/2000/svg" width="1000" height="1000" viewBox="0 0 264.58333 264.58334"><circle cx="132.29166" cy="132.29167" r="132.11478" style="opacity:.993;fill:#996cac;stroke:none;stroke-width:.353792;stroke-linecap:round;stroke-linejoin:round;fill-opacity:1"/><g style="font-style:normal;font-variant:normal;font-weight:900;font-stretch:normal;font-size:240.16px;font-family:&quot;Noto Sans CJK KR&quot;;letter-spacing:0;word-spacing:0;fill:#fff;fill-opacity:1;stroke:none;stroke-width:.400267"><path d="M179.723 52.919H98.79L88.703 131.69c6.004-.72 12.488-1.44 21.374-1.44 30.98 0 44.19 11.767 44.19 29.78 0 18.491-16.572 28.338-33.863 28.338-14.17 0-27.619-4.563-34.343-8.165l-6.004 22.334c8.165 4.564 23.295 9.127 41.548 9.127 38.185 0 62.921-24.257 62.921-54.036 0-18.973-8.645-32.182-20.413-39.627-10.327-6.964-24.256-10.087-37.945-10.087-4.563 0-7.686.24-11.048.72l4.563-31.22h60.04z" style="font-style:normal;font-variant:normal;font-weight:600;font-stretch:normal;font-size:240.16px;font-family:&quot;Myriad Pro&quot;;text-align:center;text-anchor:middle;fill:#fff;fill-opacity:1;stroke-width:.400267"/></g></svg>